<?xml version="1.0" encoding="utf-8"?>
<!-- Generator: Adobe Illustrator 18.1.1, SVG Export Plug-In . SVG Version: 6.00 Build 0)  -->
<!DOCTYPE svg PUBLIC "-//W3C//DTD SVG 1.1//EN" "http://www.w3.org/Graphics/SVG/1.1/DTD/svg11.dtd">
<svg height="40" width="40" version="1.1" id="Layer_1" xmlns="http://www.w3.org/2000/svg" xmlns:xlink="http://www.w3.org/1999/xlink" x="0px" y="0px"
	 viewBox="190 12.5 620 600" enable-background="new 190 12.5 620 600" xml:space="preserve">
<path fill="#FD7366" stroke="#FD7366" stroke-width="10" stroke-miterlimit="10" d="M800,401.4c0-0.8,0-1.4,0-2.2
	c-0.2-8.6-1.1-17.3-2.8-25.6c-5.5-26.7-17.7-49.4-31.7-62.5c-23.9-26.6-58.4-43.4-96.7-43.4c-38.8,0-84.7,31.2-98.1,48.6
	c-2.5,3.1,1.2,7.5,4.8,5.5c60.6-35,133-25.5,164.7,23.3c33,50.8,29.4,115.2-52.8,165.2c-110.8,55.3-253.1,30.2-315.6,5.2
	c-23.4-9.4-44.5-20.5-63.1-36.1c46.7-88,152.7-231.7,409.5-412.7c9.1-9.1-3-30.8-26.6-13.4C464.5,197.2,346.3,379.5,303.9,463
	c25.5-82.5,99.4-316.2,85.3-310.6c-12.7,5-60.3,169.8-85.3,259.2c-5.8,19.8-10.8,38.3-15,53.9c-54.5-53.6-85.2-121.7-88.8-119.7
	s17.2,72.8,84.2,137.2c-7.8,30-13.8,54.7-16.1,69.7c-0.8,4.7,5.8,6.6,7.5,2.2c4.8-11.9,12.2-31.1,25.2-56.6
	c58.8,49.2,147,88.9,275.5,78.6c173.1-19.4,223.7-103,223.7-173.1c0-0.3,0-0.8,0-0.9C800,401.9,800,401.6,800,401.4z"/>
</svg>
